<?xml version="1.0" encoding="UTF-8"?><svg id="Layer_1" xmlns="http://www.w3.org/2000/svg" viewBox="0 0 1192.24 1080"><path d="m1173.5,1019.17c11.05,5,18.75,16.1,18.75,29.01,0,17.57-14.23,31.82-31.82,31.82-2.91,0-5.73-.42-8.41-1.16,0,0-1057.1-267.85-1057.29-267.9C40.21,796.55,0,746.91,0,687.87V127.28C0,56.99,57,0,127.31,0h937.66c70.31,0,127.28,56.99,127.28,127.28v612.15c0,17.59-14.23,31.83-31.82,31.83-4.6,0-9-.99-12.95-2.75l-211.36-95.83c-11.03-5-36.63-22.47-36.63-57.42v-258.86c0-34.92-28.5-63.66-63.64-63.66h-479.42c-35.16,0-63.65,28.49-63.65,63.66v181.21c0,51.74,30.87,96.26,75.19,116.17l805.52,365.4Z" fill="#4bf5ff" stroke-width="0"/></svg>